PathFileType	4	(X/Y/Z)	/Users/niels/Desktop/University/Third Semester/Perception and Action/Exam/Gymnastics Motion Tracking/Code for Gym Tracking/Analyzed Data/Webcam_Backflip/id3_2_trajectory_Sports2D/id3_2_trajectory_Sports2D_px_person00.trc
DataRate	CameraRate	NumFrames	NumMarkers	Units	OrigDataRate	OrigDataStartFrame	OrigNumFrames
29.8125	29.8125	10	22	m	29.8125	40	160
Frame#	Time	Hip			RHip			RKnee			RAnkle			RBigToe			RSmallToe			RHeel			LHip			LKnee			LAnkle			LBigToe			LSmallToe			LHeel			Neck			Head			Nose			RShoulder			RElbow			RWrist			LShoulder			LElbow			LWrist		
		X1	Y1	Z1	X2	Y2	Z2	X3	Y3	Z3	X4	Y4	Z4	X5	Y5	Z5	X6	Y6	Z6	X7	Y7	Z7	X8	Y8	Z8	X9	Y9	Z9	X10	Y10	Z10	X11	Y11	Z11	X12	Y12	Z12	X13	Y13	Z13	X14	Y14	Z14	X15	Y15	Z15	X16	Y16	Z16	X17	Y17	Z17	X18	Y18	Z18	X19	Y19	Z19	X20	Y20	Z20	X21	Y21	Z21	X22	Y22	Z22
40	1.341719077568134	0.9714766315173048	-0.5454929697452925	0.0	0.9675722742686317	-0.54250432472761	0.0	0.9957754119278613	-0.6525417619355086	0.0	0.978095488280977	-0.7661323955802315	0.0	1.0188032619109681	-0.7865624732412474	0.0	1.0077461356465771	-0.7916115721640826	0.0	0.9672621482264357	-0.7815978949988668	0.0	0.975688510304054	-0.5423296164543527	0.0	0.9956585508867493	-0.6516092128380632	0.0	0.9816927488421776	-0.758890091875733	0.0	1.0220974232901139	-0.7798898437656273	0.0	1.0173256479604016	-0.7767955376282761	0.0	0.9655884300325837	-0.7757032369256563	0.0	1.0478813877487165	-0.4159520901485191	0.0	1.1154170620264503	-0.36996359554109215	0.0	1.1035379902679685	-0.4020614003832306	0.0	1.0379823982203644	-0.4222960295783285	0.0	0.958397797626449	-0.41509927664362384	0.0	0.8845568194305855	-0.41452257295748784	0.0	1.0418321710439966	-0.42400709834930156	0.0	0.9683941262618755	-0.4216206797645012	0.0	0.9038537336443079	-0.41805955576675563	0.0
41	1.3752620545073373	0.96832463549994	-0.5406120278453876	0.0	0.96419281407684	-0.5374846790165978	0.0	1.0010345743863294	-0.6449753211932981	0.0	0.9791415456336217	-0.7583713304015013	0.0	1.0217512215924494	-0.7798766996944482	0.0	1.0103713256238982	-0.7846961796178397	0.0	0.9680447303961849	-0.773582544808773	0.0	0.9730516980970667	-0.53703733917618	0.0	1.0014137864158874	-0.6436750042083366	0.0	0.9839795802657679	-0.7504149934453407	0.0	1.0238825046043691	-0.773029022377998	0.0	1.0197933875674867	-0.7695712066666023	0.0	0.967775542199924	-0.7673622575236501	0.0	1.0490562064759137	-0.4159296929656724	0.0	1.1187552504949807	-0.371286497673944	0.0	1.1060266963473706	-0.4019147782667884	0.0	1.0392669716835514	-0.42186207114685653	0.0	0.9580449143641026	-0.411326343513763	0.0	0.8829468016539246	-0.4081177252431465	0.0	1.0432543108556236	-0.42341752559733853	0.0	0.9686871173216138	-0.41849095805538183	0.0	0.9025467509327058	-0.41222845036138744	0.0
42	1.4088050314465406	0.9655921486342175	-0.5383622086778264	0.0	0.9612168224953324	-0.5352697798759471	0.0	1.007265483094467	-0.6392042879019327	0.0	0.9803489272086531	-0.7518930017677774	0.0	1.02410838360862	-0.7743312035241984	0.0	1.0123266929633563	-0.7789029051312019	0.0	0.9690032380043394	-0.7665867583543965	0.0	0.9708227340243776	-0.5343998922865937	0.0	1.0089779577197795	-0.6368314827304152	0.0	0.9866550581912286	-0.7425344977351266	0.0	1.0256877034640042	-0.7668792572256141	0.0	1.0221961805997961	-0.7632290038870504	0.0	0.9705638944511525	-0.7594871730644538	0.0	1.0499861610087244	-0.4182196353710672	0.0	1.1210716958417453	-0.37417595358191247	0.0	1.107820442986	-0.40363013725627234	0.0	1.0399128526475356	-0.4239466262230692	0.0	0.9573857949936391	-0.4130042287671013	0.0	0.8815341658292427	-0.4100254462914341	0.0	1.0439094558070101	-0.425035219288089	0.0	0.9676878429230829	-0.41990308996398884	0.0	0.9000964599810941	-0.4142678824626436	0.0
43	1.442348008385744	0.9635936335281958	-0.5393296024301666	0.0	0.9589292728397002	-0.5364501779342066	0.0	1.0137134598886413	-0.6361791016441786	0.0	0.9815554228661126	-0.7474958741043568	0.0	1.0258085413682538	-0.7703418668447836	0.0	1.01359954126292	-0.7747432556491326	0.0	0.9700011116417337	-0.761502018219742	0.0	0.9695368949372819	-0.5350152696916787	0.0	1.0176471524020174	-0.6319414602423249	0.0	0.9894388949729048	-0.7361085416804176	0.0	1.0275140567695427	-0.7619281583644172	0.0	1.0245090073877547	-0.7582309765526364	0.0	0.9738641724055238	-0.7528988654913089	0.0	1.05062248268847	-0.4228684562871615	0.0	1.1219438285083334	-0.3785496034351685	0.0	1.1087540555058122	-0.4072256769208413	0.0	1.039853611080884	-0.42888559378606433	0.0	0.9564723420240696	-0.42085785755003446	0.0	0.8805707686621862	-0.4212814247505875	0.0	1.0437611785333334	-0.42902359907056214	0.0	0.965442611912681	-0.4264247313532223	0.0	0.8969491074016728	-0.4249839155844661	0.0
44	1.4758909853249473	0.9623711448611129	-0.5439174109362492	0.0	0.957431317057374	-0.5413368775946472	0.0	1.0197521422521472	-0.6367231990370127	0.0	0.9826355808929392	-0.7460567107025744	0.0	1.0269438844819299	-0.768487397056963	0.0	1.0143717682201194	-0.772826662242738	0.0	0.9709218240695416	-0.7593327890629836	0.0	0.9693873496849703	-0.5392773978291611	0.0	1.0263875250856966	-0.6300324083437578	0.0	0.9920318129288604	-0.7323958469825741	0.0	1.0293506864958246	-0.7589533160484097	0.0	1.0267248628414083	-0.7553037143519191	0.0	0.9774716263181877	-0.748802292530506	0.0	1.0509688355581575	-0.4296934038060974	0.0	1.1209688453093274	-0.38418930811888413	0.0	1.1086343295581529	-0.41255922065260464	0.0	1.0391790873342177	-0.4368470354200151	0.0	0.9558364057356941	-0.43537185986166527	0.0	0.8813020729757454	-0.44271365160970505	0.0	1.0428588143156599	-0.4354278205968582	0.0	0.9627334393800652	-0.4385593678723997	0.0	0.8948992763930158	-0.44486589636919605	0.0
45	1.5094339622641506	0.9617032655667058	-0.5522718683486931	0.0	0.9566753375128447	-0.5499994778941009	0.0	1.0249879426655244	-0.6414514395988454	0.0	0.9835097962715285	-0.7484833559540125	0.0	1.0276922221349272	-0.7696376510301012	0.0	1.014890615103524	-0.7739913369341769	0.0	0.9716956990037314	-0.7610759339003496	0.0	0.9700331568911261	-0.5473583876883339	0.0	1.0340252434884227	-0.6321892261701851	0.0	0.9940726190872972	-0.7329018173248946	0.0	1.0312178871240474	-0.7590364697629702	0.0	1.0288500540861512	-0.7555029038159548	0.0	0.9809427612542699	-0.7486328721220705	0.0	1.0508447264874503	-0.4384117381329842	0.0	1.1177293728767888	-0.39082724159865917	0.0	1.1071415426062605	-0.41937262643494416	0.0	1.0379179241952954	-0.4477723888975128	0.0	0.9564427850794638	-0.45654387159789134	0.0	0.8858313138822264	-0.4742232235278992	0.0	1.0411910176017058	-0.4442037731975792	0.0	0.9610283282108177	-0.456450897635171	0.0	0.8968626337513442	-0.47344178819507227	0.0
46	1.542976939203354	0.9612509704942354	-0.5642372447504229	0.0	0.9565158629867484	-0.5623190665039012	0.0	1.0291716276400185	-0.6507320126769714	0.0	0.9841731936565264	-0.755538607342455	0.0	1.028195513246424	-0.7748942668212144	0.0	1.0153066608910233	-0.7792565320625794	0.0	0.9722868406720778	-0.7675061063420174	0.0	0.9707993850496439	-0.5592208141499492	0.0	1.0395352972381815	-0.6393718835085843	0.0	0.9951689768861661	-0.7390430460688721	0.0	1.0331898402417174	-0.7633292262878986	0.0	1.0308760509083512	-0.760000785101018	0.0	0.9836035122391034	-0.7536576580447119	0.0	1.0497754237209818	-0.44867672660252345	0.0	1.1117890448022378	-0.398240168202751	0.0	1.1038303292816694	-0.4273316392032859	0.0	1.035885157609959	-0.4612381950195487	0.0	0.9595676319900637	-0.48350365467655937	0.0	0.8968430562753987	-0.5139046617874715	0.0	1.0386223430757813	-0.45516328592445915	0.0	0.9622700027797932	-0.47943858236028986	0.0	0.9063299570653285	-0.5085357970114149	0.0
47	1.5765199161425574	0.9608058049115097	-0.5793442272774614	0.0	0.9567801783404911	-0.57794614524789	0.0	1.0320509150915615	-0.6645916398009348	0.0	0.9846926662890874	-0.7675548185467653	0.0	1.0284763924123261	-0.7851964558870667	0.0	1.01562420888229	-0.7894677996614562	0.0	0.9726851232448155	-0.7789122569455882	0.0	0.9711217032024458	-0.5745822851646722	0.0	1.042282817998067	-0.6521252067380702	0.0	0.9950760344315401	-0.7515843111575767	0.0	1.035252969238698	-0.7725080454145217	0.0	1.0326278803447084	-0.7695358378900292	0.0	0.9847796625459992	-0.7644577270753448	0.0	1.0471684922923683	-0.4600660025748657	0.0	1.1028121472375245	-0.4061971776876487	0.0	1.0982888871529404	-0.43604435318811224	0.0	1.032765741798454	-0.47635204727345515	0.0	0.9665675906500781	-0.5140839513728164	0.0	0.9170431763189155	-0.5573465439054497	0.0	1.0350229676354856	-0.4679066545891797	0.0	0.9684259347404942	-0.5056846060350301	0.0	0.926357758373396	-0.5457608533816302	0.0
48	1.6100628930817606	0.9605141382605611	-0.5967764361528913	0.0	0.9573998491415666	-0.5961277476451423	0.0	1.0333554688809876	-0.6825155879750098	0.0	0.9851255733850045	-0.7841040904472079	0.0	1.0284877941971051	-0.8006500929202954	0.0	1.0157640190613633	-0.804707727447081	0.0	0.9729030657706316	-0.7948333119919377	0.0	0.9708697291247114	-0.5927173009826359	0.0	1.0421362692787208	-0.6701868125368505	0.0	0.9938917593728357	-0.7700109226822761	0.0	1.0370677266958699	-0.7862929680613261	0.0	1.0336348414283554	-0.7839024379837106	0.0	0.9840904821966648	-0.7805687367039658	0.0	1.0426651142638295	-0.47205891192483435	0.0	1.0906996650052947	-0.4142955915550415	0.0	1.090356974643751	-0.44498158781529407	0.0	1.0283493099064729	-0.49185812161517667	0.0	0.9784200183572541	-0.5446259944759819	0.0	0.9479382507557359	-0.5975908282786478	0.0	1.0305237571352015	-0.4817646098003718	0.0	0.9807772450096316	-0.5320045895781966	0.0	0.9580585154447057	-0.5786198290254599	0.0
49	1.6436058700209641	0.9608955959005119	-0.6153405007544107	0.0	0.9585956039843957	-0.6155533529430312	0.0	1.0329239186386352	-0.7031909793774819	0.0	0.9854278451042708	-0.8037343477645708	0.0	1.0282418652109333	-0.8199511587266827	0.0	1.0155730814109556	-0.8237788663912433	0.0	0.9729288224335112	-0.8138675100433577	0.0	0.9704715195925956	-0.6122467945021275	0.0	1.0394836190784313	-0.6921159682543822	0.0	0.9920524767097832	-0.7922443176066525	0.0	1.0380353144396333	-0.8034256788543798	0.0	1.0332891716058743	-0.8018634485207924	0.0	0.9816599717593513	-0.8004038364413398	0.0	1.036391516174233	-0.48394014111617734	0.0	1.0755942614552394	-0.42187032638344796	0.0	1.0802520316388793	-0.4533376749126162	0.0	1.0227475838287023	-0.5063934904690544	0.0	0.9950498547121658	-0.5703440796685063	0.0	0.988178047819359	-0.626262806880836	0.0	1.0255597989150298	-0.4956575229991608	0.0	0.9989353570232916	-0.5538564276724567	0.0	0.9989433360400614	-0.5994717565097132	0.0
